<svg width="145" height="18" viewBox="0 0 145 18" fill="none" xmlns="http://www.w3.org/2000/svg">
<line y1="-1.5" x2="26.4805" y2="-1.5" transform="matrix(-0.834057 0.551678 -0.834057 -0.551678 102.017 1)" stroke="#086AFF" stroke-width="3"/>
<line y1="-1.5" x2="26.4805" y2="-1.5" transform="matrix(0.834057 0.551678 -0.834057 0.551678 59.9482 2.39136)" stroke="#086AFF" stroke-width="3"/>
<line y1="-1.5" x2="26.4805" y2="-1.5" transform="matrix(-0.834057 0.551678 -0.834057 -0.551678 62.0518 1)" stroke="#086AFF" stroke-width="3"/>
<line y1="-1.5" x2="26.4805" y2="-1.5" transform="matrix(0.834057 0.551678 -0.834057 0.551678 19.9829 2.39136)" stroke="#086AFF" stroke-width="3"/>
<line y1="-1.5" x2="26.4805" y2="-1.5" transform="matrix(-0.834057 0.551678 -0.834057 -0.551678 22.0864 1)" stroke="#086AFF" stroke-width="3"/>
<line y1="-1.5" x2="26.4805" y2="-1.5" transform="matrix(0.834057 0.551678 -0.834057 0.551678 99.9312 2.39136)" stroke="#086AFF" stroke-width="3"/>
<line y1="-1.5" x2="26.4805" y2="-1.5" transform="matrix(-0.834057 0.551678 -0.834057 -0.551678 142.104 1)" stroke="#086AFF" stroke-width="3"/>
</svg>
