<svg width="83" height="55" viewBox="0 0 83 55" fill="none" xmlns="http://www.w3.org/2000/svg">
<rect x="22.1284" y="12.921" width="42.0908" height="3.86687" transform="rotate(76.8019 22.1284 12.921)" fill="#086AFF"/>
<rect x="13.6812" y="40.1119" width="28.4176" height="3.86687" transform="rotate(-80.6021 13.6812 40.1119)" fill="#086AFF"/>
<rect y="30.665" width="31.0266" height="3.86687" transform="rotate(-74.8743 0 30.665)" fill="#086AFF"/>
<rect x="13.6914" y="40.0123" width="39.8622" height="3.86687" transform="rotate(-98.0039 13.6914 40.0123)" fill="#086AFF"/>
<path d="M37.4517 48.1811C36.9332 48.1811 36.4645 48.0852 36.0455 47.8935C35.6264 47.6982 35.2944 47.4158 35.0494 47.0465C34.8079 46.6772 34.6871 46.2244 34.6871 45.6882C34.6871 45.2266 34.7759 44.8466 34.9535 44.5483C35.131 44.25 35.3707 44.0138 35.6726 43.8398C35.9744 43.6658 36.3118 43.5344 36.6847 43.4457C37.0575 43.3569 37.4375 43.2894 37.8246 43.2433C38.3146 43.1864 38.7124 43.1403 39.0178 43.1048C39.3232 43.0657 39.5451 43.0036 39.6836 42.9183C39.8221 42.8331 39.8913 42.6946 39.8913 42.5028V42.4656C39.8913 42.0004 39.7599 41.6399 39.4972 41.3842C39.2379 41.1286 38.8509 41.0007 38.3359 41.0007C37.7997 41.0007 37.3771 41.1197 37.0682 41.3576C36.7628 41.592 36.5515 41.853 36.4343 42.1406L34.9375 41.7997C35.1151 41.3026 35.3743 40.9013 35.7152 40.5959C36.0597 40.2869 36.4556 40.0632 36.9031 39.9247C37.3505 39.7827 37.821 39.7116 38.3146 39.7116C38.6413 39.7116 38.9876 39.7507 39.3533 39.8288C39.7227 39.9034 40.0671 40.0419 40.3867 40.2443C40.7099 40.4467 40.9744 40.7362 41.1804 41.1126C41.3864 41.4854 41.4893 41.9702 41.4893 42.5668V48H39.9339V46.8814H39.87C39.767 47.0874 39.6126 47.2898 39.4066 47.4886C39.2006 47.6875 38.9361 47.8526 38.6129 47.984C38.2898 48.1154 37.9027 48.1811 37.4517 48.1811ZM37.7979 46.9027C38.2383 46.9027 38.6147 46.8157 38.9272 46.6417C39.2433 46.4677 39.483 46.2404 39.6463 45.9599C39.8132 45.6758 39.8967 45.3722 39.8967 45.049V43.9943C39.8398 44.0511 39.7298 44.1044 39.5664 44.1541C39.4066 44.2003 39.2237 44.2411 39.0178 44.2766C38.8118 44.3086 38.6112 44.3388 38.4158 44.3672C38.2205 44.392 38.0572 44.4134 37.9258 44.4311C37.6168 44.4702 37.3345 44.5359 37.0788 44.6282C36.8267 44.7205 36.6243 44.8537 36.4716 45.0277C36.3224 45.1982 36.2479 45.4254 36.2479 45.7095C36.2479 46.1037 36.3935 46.402 36.6847 46.6044C36.9759 46.8033 37.3469 46.9027 37.7979 46.9027ZM44.8678 39.8182L46.6736 43.0036L48.4953 39.8182H50.2371L47.6856 43.9091L50.2584 48H48.5166L46.6736 44.9425L44.8358 48H43.0887L45.6349 43.9091L43.1206 39.8182H44.8678ZM55.8422 48V39.8182H57.3816V41.1179H57.4668C57.6159 40.6776 57.8787 40.3313 58.2551 40.0792C58.6351 39.8235 59.0648 39.6957 59.5442 39.6957C59.6436 39.6957 59.7608 39.6992 59.8958 39.7063C60.0343 39.7134 60.1426 39.7223 60.2207 39.733V41.2564C60.1568 41.2386 60.0431 41.2191 59.8798 41.1978C59.7164 41.1729 59.5531 41.1605 59.3897 41.1605C59.0133 41.1605 58.6777 41.2404 58.383 41.4002C58.0918 41.5565 57.861 41.7749 57.6905 42.0554C57.5201 42.3324 57.4348 42.6484 57.4348 43.0036V48H55.8422ZM64.8323 48.1651C64.0262 48.1651 63.3319 47.9929 62.7496 47.6484C62.1707 47.3004 61.7233 46.8121 61.4072 46.1836C61.0947 45.5515 60.9385 44.8111 60.9385 43.9624C60.9385 43.1243 61.0947 42.3857 61.4072 41.7464C61.7233 41.1072 62.1636 40.6083 62.7282 40.2496C63.2964 39.891 63.9605 39.7116 64.7204 39.7116C65.1821 39.7116 65.6295 39.788 66.0628 39.9407C66.496 40.0934 66.8849 40.3331 67.2293 40.6598C67.5738 40.9865 67.8454 41.4109 68.0443 41.9329C68.2432 42.4513 68.3426 43.0817 68.3426 43.8239V44.3885H61.8387V43.1953H66.7819C66.7819 42.7763 66.6966 42.4052 66.5262 42.082C66.3557 41.7553 66.116 41.4979 65.8071 41.3097C65.5017 41.1214 65.143 41.0273 64.7311 41.0273C64.2836 41.0273 63.893 41.1374 63.5592 41.3576C63.229 41.5742 62.9733 41.8583 62.7922 42.2099C62.6146 42.5579 62.5258 42.9361 62.5258 43.3445V44.2766C62.5258 44.8235 62.6217 45.2887 62.8135 45.6722C63.0088 46.0558 63.2805 46.3487 63.6285 46.5511C63.9765 46.75 64.3831 46.8494 64.8483 46.8494C65.1501 46.8494 65.4253 46.8068 65.6739 46.7216C65.9225 46.6328 66.1373 46.5014 66.3184 46.3274C66.4996 46.1534 66.6381 45.9386 66.7339 45.6829L68.2414 45.9545C68.1206 46.3984 67.904 46.7873 67.5915 47.1211C67.2826 47.4513 66.8937 47.7088 66.425 47.8935C65.9598 48.0746 65.4289 48.1651 64.8323 48.1651ZM70.1097 48V39.8182H71.6385V41.1499H71.7397C71.9102 40.6989 72.1889 40.3473 72.576 40.0952C72.9631 39.8395 73.4265 39.7116 73.9663 39.7116C74.5131 39.7116 74.9712 39.8395 75.3406 40.0952C75.7134 40.3509 75.9886 40.7024 76.1662 41.1499H76.2514C76.4467 40.7131 76.7575 40.3651 77.1836 40.1058C77.6097 39.843 78.1175 39.7116 78.707 39.7116C79.4492 39.7116 80.0547 39.9442 80.5234 40.4094C80.9957 40.8746 81.2319 41.576 81.2319 42.5135V48H79.6392V42.6626C79.6392 42.1087 79.4883 41.7074 79.1864 41.4588C78.8846 41.2102 78.5241 41.0859 78.1051 41.0859C77.5866 41.0859 77.1836 41.2457 76.896 41.5653C76.6083 41.8814 76.4645 42.288 76.4645 42.7852V48H74.8771V42.5614C74.8771 42.1175 74.7386 41.7607 74.4616 41.4908C74.1847 41.2209 73.8242 41.0859 73.3803 41.0859C73.0785 41.0859 72.7997 41.1658 72.544 41.3256C72.2919 41.4819 72.0877 41.7003 71.9315 41.9808C71.7788 42.2614 71.7024 42.5863 71.7024 42.9556V48H70.1097Z" fill="#F6F6FE"/>
</svg>
