<svg width="22" height="22" viewBox="0 0 22 22" fill="none" xmlns="http://www.w3.org/2000/svg">
<path fill-rule="evenodd" clip-rule="evenodd" d="M2.8192 8.50123C5.05764 13.3743 9.03484 17.236 13.9717 19.33L13.9867 19.3362L14.9417 19.7612C15.5316 20.0243 16.194 20.0763 16.8177 19.9085C17.4414 19.7408 17.9884 19.3635 18.3667 18.84L19.9592 16.6362C20.006 16.5713 20.0261 16.4909 20.0154 16.4116C20.0047 16.3323 19.964 16.2602 19.9017 16.21L17.1217 13.9662C17.0889 13.9398 17.0511 13.9202 17.0105 13.9088C16.9699 13.8973 16.9275 13.8941 16.8857 13.8995C16.8439 13.9049 16.8036 13.9187 16.7672 13.94C16.7309 13.9614 16.6993 13.9898 16.6742 14.0237L15.5917 15.4837C15.4642 15.656 15.2815 15.7793 15.074 15.8332C14.8666 15.8871 14.647 15.8683 14.4517 15.78C10.753 14.1044 7.78975 11.1412 6.1142 7.44248C6.02583 7.24722 6.00704 7.02758 6.06094 6.82014C6.11485 6.61271 6.2382 6.43001 6.41045 6.30248L7.8692 5.21873C7.9031 5.19368 7.93157 5.16203 7.95292 5.12568C7.97427 5.08934 7.98804 5.04905 7.99341 5.00724C7.99878 4.96544 7.99564 4.92298 7.98418 4.88242C7.97271 4.84186 7.95316 4.80404 7.9267 4.77123L5.6842 1.99123C5.63402 1.92889 5.56184 1.88818 5.48254 1.87748C5.40324 1.86678 5.32285 1.88692 5.25795 1.93373L3.0417 3.53373C2.5147 3.91386 2.13558 4.46475 1.96878 5.09277C1.80197 5.72079 1.85777 6.38719 2.1267 6.97873L2.8192 8.49998V8.50123ZM13.2317 21.0525C7.86808 18.775 3.54745 14.5778 1.11545 9.28248L1.11295 9.27998L0.420449 7.75498C-0.0277759 6.76927 -0.120915 5.65879 0.156856 4.61219C0.434626 3.56559 1.06617 2.64744 1.9442 2.01373L4.16045 0.413728C4.61436 0.0861289 5.17659 -0.0549904 5.73141 0.019419C6.28622 0.0938284 6.7914 0.378104 7.14295 0.813728L9.3867 3.59498C9.57186 3.82444 9.70872 4.08898 9.78906 4.37268C9.8694 4.65638 9.89155 4.95339 9.85419 5.24587C9.81682 5.53835 9.72072 5.82026 9.57164 6.07465C9.42257 6.32905 9.2236 6.55068 8.9867 6.72623L8.1492 7.34623C9.56517 10.0917 11.8013 12.3278 14.5467 13.7437L15.1679 12.9062C15.3435 12.6695 15.5651 12.4707 15.8193 12.3217C16.0736 12.1728 16.3554 12.0767 16.6477 12.0394C16.9401 12.002 17.2369 12.0241 17.5205 12.1043C17.8041 12.1846 18.0685 12.3213 18.2979 12.5062L21.0792 14.75C21.5152 15.1016 21.7997 15.607 21.8741 16.1621C21.9485 16.7172 21.8072 17.2797 21.4792 17.7337L19.8867 19.9387C19.2563 20.8111 18.3449 21.44 17.3056 21.7198C16.2663 21.9995 15.1623 21.9131 14.1792 21.475L13.2317 21.0525Z" fill="#4790FF"/>
</svg>
