<svg width="30" height="30" viewBox="0 0 30 30" fill="none" xmlns="http://www.w3.org/2000/svg">
<path d="M6.24978 12.325C8.64959 17.551 12.9137 21.693 18.2073 23.94L19.0573 24.3187C19.9986 24.7379 21.0576 24.8114 22.0477 24.5262C23.0379 24.2411 23.8956 23.6156 24.4698 22.76L25.581 21.105C25.7549 20.8454 25.8253 20.5302 25.7783 20.2213C25.7314 19.9125 25.5705 19.6324 25.3273 19.4362L21.5623 16.3987C21.4312 16.293 21.28 16.2149 21.118 16.1691C20.9559 16.1232 20.7862 16.1106 20.6192 16.132C20.4521 16.1533 20.2911 16.2082 20.1458 16.2934C20.0004 16.3785 19.8738 16.4922 19.7735 16.6275L18.6085 18.1987C15.618 16.7218 13.1974 14.3008 11.721 11.31L13.291 10.145C13.4263 10.0447 13.54 9.91809 13.6251 9.77277C13.7103 9.62746 13.7652 9.46643 13.7866 9.29936C13.8079 9.1323 13.7953 8.96263 13.7495 8.80057C13.7036 8.6385 13.6255 8.48737 13.5198 8.35624L10.4823 4.59124C10.2861 4.34806 10.0061 4.18714 9.6972 4.14017C9.38833 4.0932 9.07307 4.1636 8.81353 4.33749L7.14728 5.45499C6.28653 6.03222 5.65864 6.89626 5.37546 7.8932C5.09229 8.89014 5.17223 9.95524 5.60103 10.8987L6.24978 12.325Z" fill="#4790FF"/>
</svg>
